# xmcd
#
# Track frame offsets: 
#        150
#        13161
#        24155
#        36565
#        50101
#        63070
#        76270
#        89778
#        104463
#        119997
#        135831
#        149186
#        163667
#        177445
#        201716
#        215253
#        230136
#        245017
#        271370
#
# Disc length: 4409 seconds
#
# Revision: 0
# Processed by: cddbd v1.5.1PL0 Copyright (c) Steve Scherf et al.
# Submitted via: ExactAudioCopy v0.95a5
#
DISCID=2c113713
DTITLE=Duke Ellington - Anniversary Vol. 7 - Ladies
DYEAR=1999
DGENRE=
TTITLE0=Sophisticated Lady
TTITLE1=Dinah Lou
TTITLE2=The Lady Who Couldn't Be Kissed
TTITLE3=The Gal From Joe's
TTITLE4=Dinah's In A Jam
TTITLE5=Lady In Blue
TTITLE6=Country Gal
TTITLE7=Warm Valley
TTITLE8=Chlo-e
TTITLE9=John Hardy's Wife
TTITLE10=Clementine
TTITLE11=Brown-Skinned Gal In The Calico Gown
TTITLE12=Sentimental Lady (I Didn't Know About You)
TTITLE13=Blue Belles of Harlem
TTITLE14=Lily Belle
TTITLE15=Lady Of The Lavender Mist
TTITLE16=Women (They'll Get You)
TTITLE17=Brown Betty
TTITLE18=The Tattooed Bride
EXTD=
EXTT0=
EXTT1=
EXTT2=
EXTT3=
EXTT4=
EXTT5=
EXTT6=
EXTT7=
EXTT8=
EXTT9=
EXTT10=
EXTT11=
EXTT12=
EXTT13=
EXTT14=
EXTT15=
EXTT16=
EXTT17=
EXTT18=
PLAYORDER=
